<svg width="386" height="358" viewBox="0 0 386 358" fill="none" xmlns="http://www.w3.org/2000/svg">
<path opacity="0.5" d="M79.1395 151.152C87.0883 175.251 104.217 201.661 129.43 210.263C167.518 223.256 170.918 254.527 240.047 254.279C250.14 254.296 260.204 253.215 270.063 251.056C274.883 249.984 279.63 248.607 284.275 246.931C325.227 232.159 347.647 197.029 350.858 159.489C355.077 110.118 321.473 85.2048 299.595 70.5152C277.717 55.8256 252.733 1.30987 184.771 0.985793C174.397 0.898027 164.046 2.00522 153.925 4.28549C130.851 9.58858 107.104 22.3573 92.8392 41.8196C91.7746 43.2809 90.7474 44.7775 89.7575 46.3095C70.4955 76.2602 68.2976 118.296 79.1395 151.152Z" fill="#D1F2FA"/>
<path d="M353.86 53.4932C356.738 53.4932 359.072 55.8265 359.072 58.7047V195.032C359.072 197.91 356.738 200.244 353.86 200.244H128.166C125.288 200.244 122.955 197.91 122.955 195.032V58.7047C122.955 55.8265 125.288 53.4932 128.166 53.4932H353.86Z" fill="white" stroke="#7DACC5" stroke-width="1.01363"/>
<rect x="-0.392059" y="0.392059" width="3.33272" height="3.33272" rx="1.66636" transform="matrix(-1 0 0 1 349.633 112.385)" fill="white" stroke="#6631FE" stroke-width="0.784118"/>
<rect x="-0.392059" y="0.392059" width="3.33272" height="3.33272" rx="1.66636" transform="matrix(-1 0 0 1 349.633 123.364)" fill="white" stroke="#6631FE" stroke-width="0.784118"/>
<rect width="21.9565" height="52.4897" transform="matrix(4.37114e-08 1 1 -4.37114e-08 256.579 163.186)" fill="white"/>
<rect width="19.8981" height="21.6134" transform="matrix(4.37114e-08 1 1 -4.37114e-08 218.499 163.872)" fill="white"/>
<rect width="21.9565" height="52.4897" transform="matrix(4.37114e-08 1 1 -4.37114e-08 182.818 116.529)" fill="white"/>
<path d="M285.74 181.026C284.983 181.026 284.368 181.641 284.368 182.399C284.368 183.157 284.983 183.771 285.74 183.771L309.069 183.771L309.069 181.026L285.74 181.026Z" fill="#2E5CFF"/>
<path d="M293.972 181.026C293.214 181.026 292.6 181.641 292.6 182.399C292.6 183.157 293.214 183.771 293.972 183.771L309.067 183.771L309.067 181.026L293.972 181.026Z" fill="#FFD600"/>
<path d="M302.207 181.026C301.449 181.026 300.835 181.641 300.835 182.399C300.835 183.157 301.449 183.771 302.207 183.771L309.069 183.771L309.069 181.026L302.207 181.026Z" fill="#FF4800"/>
<path d="M276.133 176.909C275.375 176.909 274.76 177.523 274.76 178.281C274.76 179.039 275.375 179.653 276.133 179.653L309.067 179.653L309.067 176.909L276.133 176.909Z" fill="#2E5CFF"/>
<path d="M290.541 176.909C289.783 176.909 289.168 177.523 289.168 178.281C289.168 179.039 289.783 179.653 290.541 179.653L309.067 179.653L309.067 176.909L290.541 176.909Z" fill="#FFD600"/>
<path d="M296.719 176.909C295.962 176.909 295.347 177.523 295.347 178.281C295.347 179.039 295.962 179.653 296.719 179.653L309.07 179.653L309.07 176.909L296.719 176.909Z" fill="#FF4800"/>
<path d="M267.214 172.792C266.456 172.792 265.842 173.407 265.842 174.165C265.842 174.922 266.456 175.537 267.214 175.537L309.069 175.537L309.069 172.792L267.214 172.792Z" fill="#2E5CFF"/>
<path d="M273.046 172.792C272.288 172.792 271.674 173.407 271.674 174.165C271.674 174.922 272.288 175.537 273.046 175.537L309.068 175.537L309.068 172.792L273.046 172.792Z" fill="#FFD600"/>
<path d="M286.426 172.792C285.669 172.792 285.054 173.407 285.054 174.165C285.054 174.922 285.669 175.537 286.426 175.537L309.069 175.537L309.069 172.792L286.426 172.792Z" fill="#FF4800"/>
<path d="M272.015 168.676C271.257 168.676 270.643 169.29 270.643 170.048C270.643 170.806 271.257 171.42 272.015 171.42L309.066 171.42L309.066 168.676L272.015 168.676Z" fill="#2E5CFF"/>
<path d="M282.996 168.676C282.238 168.676 281.624 169.29 281.624 170.048C281.624 170.806 282.238 171.42 282.996 171.42L309.069 171.42L309.069 168.676L282.996 168.676Z" fill="#FFD600"/>
<path d="M289.514 168.676C288.756 168.676 288.142 169.29 288.142 170.048C288.142 170.806 288.756 171.42 289.514 171.42L309.069 171.42L309.069 168.676L289.514 168.676Z" fill="#FF4800"/>
<path d="M263.095 164.559C262.337 164.559 261.723 165.173 261.723 165.931C261.723 166.689 262.337 167.304 263.095 167.304L309.066 167.304L309.066 164.559L263.095 164.559Z" fill="#2E5CFF"/>
<path d="M280.936 164.559C280.178 164.559 279.564 165.173 279.564 165.931C279.564 166.689 280.178 167.304 280.936 167.304L309.068 167.304L309.068 164.559L280.936 164.559Z" fill="#FFD600"/>
<path d="M285.397 164.559C284.639 164.559 284.024 165.173 284.024 165.931C284.024 166.689 284.639 167.304 285.397 167.304L309.068 167.304L309.068 164.559L285.397 164.559Z" fill="#FF4800"/>
<rect width="5.4995" height="0.687437" rx="0.343719" transform="matrix(-1 0 0 1 353.753 60.187)" fill="#6631FE"/>
<path d="M353.662 62.2492C353.662 62.0594 353.508 61.9055 353.318 61.9055H349.881C349.691 61.9055 349.537 62.0594 349.537 62.2492C349.537 62.4391 349.691 62.593 349.881 62.593H353.318C353.508 62.593 353.662 62.4391 353.662 62.2492Z" fill="#6631FE"/>
<rect width="4.81206" height="0.687437" rx="0.343719" transform="matrix(-1 0 0 1 353.753 63.6243)" fill="#6631FE"/>
<rect width="27.4975" height="2.74975" rx="1.37487" transform="matrix(-1 0 0 1 342.753 60.8743)" fill="#6631FE"/>
<rect width="4.12462" height="4.12462" rx="2.06231" transform="matrix(-1 0 0 1 185.331 60.187)" fill="#6631FE"/>
<rect x="-0.392059" y="0.392059" width="3.34051" height="3.34051" rx="1.67025" transform="matrix(-1 0 0 1 349.532 79.4353)" fill="white" stroke="#6631FE" stroke-width="0.784118"/>
<rect x="-0.392059" y="0.392059" width="3.34051" height="3.34051" rx="1.67025" transform="matrix(-1 0 0 1 349.532 90.4341)" fill="white" stroke="#6631FE" stroke-width="0.784118"/>
<rect x="-0.392059" y="0.392059" width="3.34051" height="3.34051" rx="1.67025" transform="matrix(-1 0 0 1 349.532 101.433)" fill="white" stroke="#6631FE" stroke-width="0.784118"/>
<rect width="4.12462" height="4.12462" rx="2.06231" transform="matrix(-1 0 0 1 174.332 60.187)" fill="#6631FE"/>
<rect width="4.12462" height="4.12462" rx="2.06231" transform="matrix(-1 0 0 1 163.333 60.187)" fill="#6631FE"/>
<rect width="16.4985" height="2.74975" rx="1.37487" transform="matrix(-1 0 0 1 152.334 60.8743)" fill="#6631FE"/>
<rect width="21.998" height="52.2452" transform="matrix(4.37114e-08 1 1 -4.37114e-08 249.263 159.866)" fill="white"/>
<path d="M327.398 109.754C327.398 105.319 327.398 103.101 326.02 101.723C324.642 100.345 322.425 100.345 317.989 100.345H252.02C247.584 100.345 245.367 100.345 243.989 101.723C242.611 103.101 242.611 105.319 242.611 109.754V132.163C242.611 136.598 242.611 138.816 243.989 140.194C245.367 141.572 247.584 141.572 252.02 141.572H317.989C322.425 141.572 324.642 141.572 326.02 140.194C327.398 138.816 327.398 136.598 327.398 132.163V109.754Z" fill="#F1F4FA"/>
<rect width="13.4272" height="1.11894" rx="0.559468" transform="matrix(-1 0 0 1 320.717 105.825)" fill="#B8C3D9"/>
<path d="M318.383 122.474V134.64H252.622V121.315L257.432 118.884C263.058 116.04 269.699 116.027 275.337 118.849L277.5 119.931C281.222 121.794 285.565 121.973 289.428 120.423C293.225 118.9 297.487 119.046 301.171 120.825L303.084 121.748C307.399 123.832 312.332 124.241 316.931 122.898L318.383 122.474Z" fill="#30D7F4"/>
<path d="M318.383 124.739V134.64H252.622V124.739L258.22 122.077C263.294 119.665 269.252 120.036 273.987 123.059C277.895 125.554 282.682 126.266 287.148 125.017L292.789 123.439C296.679 122.35 300.832 122.725 304.464 124.491L304.693 124.602C309.005 126.699 314.03 126.749 318.383 124.739Z" fill="#8B91FF"/>
<path d="M318.383 128.516V134.64H252.622V126.028L258.463 124.588C263.724 123.291 269.27 123.823 274.188 126.098L275.514 126.711C280.396 128.97 285.975 129.2 291.027 127.351L291.771 127.079C296.293 125.425 301.284 125.61 305.671 127.596C309.449 129.307 313.696 129.69 317.719 128.682L318.383 128.516Z" fill="#3066F0"/>
<rect width="4.80298" height="0.686139" rx="0.343069" transform="matrix(1 -8.74228e-08 -8.74228e-08 -1 271.463 107.201)" fill="#547AFF"/>
<rect width="4.80298" height="0.686139" rx="0.343069" transform="matrix(1 -8.74228e-08 -8.74228e-08 -1 261.171 107.201)" fill="#7392FF"/>
<rect width="4.80298" height="0.686139" rx="0.343069" transform="matrix(1 -8.74228e-08 -8.74228e-08 -1 250.879 107.201)" fill="#F1F4FA"/>
<rect width="1.37228" height="1.37228" rx="0.68614" transform="matrix(1 -8.74228e-08 -8.74228e-08 -1 277.641 107.544)" fill="#547AFF"/>
<rect width="1.37228" height="1.37228" rx="0.68614" transform="matrix(1 -8.74228e-08 -8.74228e-08 -1 267.347 107.544)" fill="#7392FF"/>
<rect width="1.37228" height="1.37228" rx="0.68614" transform="matrix(1 -8.74228e-08 -8.74228e-08 -1 257.053 107.544)" fill="#F1F4FA"/>
<path d="M328.176 85.6045C328.176 82.3003 328.176 80.6482 327.383 79.4615C327.04 78.948 326.599 78.5071 326.085 78.1639C324.898 77.3708 323.246 77.3708 319.942 77.3708H300.668C297.364 77.3708 295.712 77.3708 294.525 78.1639C294.011 78.5071 293.57 78.948 293.227 79.4615C292.434 80.6482 292.434 82.3003 292.434 85.6045C292.434 88.9087 292.434 90.5608 293.227 91.7476C293.57 92.2611 294.011 92.702 294.525 93.0451C295.712 93.8382 297.364 93.8382 300.668 93.8382H319.942C323.246 93.8382 324.898 93.8382 326.085 93.0451C326.599 92.702 327.04 92.2611 327.383 91.7476C328.176 90.5608 328.176 88.9087 328.176 85.6045Z" fill="#F1F4FA"/>
<rect x="322.044" y="88.592" width="6.15414" height="6.15414" rx="3.07707" transform="rotate(180 322.044 88.592)" fill="#6631FE" fill-opacity="0.36"/>
<rect width="10.6299" height="1.11894" rx="0.559468" transform="matrix(-1 0 0 1 313.092 83.5569)" fill="#B8C3D9"/>
<rect width="13.9867" height="0.559468" rx="0.279734" transform="matrix(-1 0 0 1 313.092 86.9133)" fill="#B8C3D9"/>
<path d="M279.169 85.6045C279.169 82.3003 279.169 80.6482 278.376 79.4615C278.033 78.948 277.592 78.5071 277.079 78.1639C275.892 77.3708 274.24 77.3708 270.936 77.3708H251.114C247.809 77.3708 246.157 77.3708 244.97 78.1639C244.457 78.5071 244.016 78.948 243.673 79.4615C242.88 80.6482 242.88 82.3003 242.88 85.6045C242.88 88.9087 242.88 90.5608 243.673 91.7476C244.016 92.2611 244.457 92.702 244.97 93.0451C246.157 93.8382 247.809 93.8382 251.114 93.8382H270.936C274.24 93.8382 275.892 93.8382 277.079 93.0451C277.592 92.702 278.033 92.2611 278.376 91.7476C279.169 90.5608 279.169 88.9087 279.169 85.6045Z" fill="#F1F4FA"/>
<rect x="273.037" y="88.592" width="6.15414" height="6.15414" rx="3.07707" transform="rotate(180 273.037 88.592)" fill="#00C69A" fill-opacity="0.58"/>
<rect width="10.6299" height="1.11894" rx="0.559468" transform="matrix(-1 0 0 1 264.086 83.5566)" fill="#B8C3D9"/>
<rect width="13.9867" height="0.559468" rx="0.279734" transform="matrix(-1 0 0 1 264.086 86.9133)" fill="#B8C3D9"/>
<path d="M230.94 85.6045C230.94 82.3003 230.94 80.6482 230.147 79.4615C229.804 78.948 229.363 78.5071 228.85 78.1639C227.663 77.3708 226.011 77.3708 222.707 77.3708H203.433C200.128 77.3708 198.476 77.3708 197.289 78.1639C196.776 78.5071 196.335 78.948 195.992 79.4615C195.199 80.6482 195.199 82.3003 195.199 85.6045C195.199 88.9087 195.199 90.5608 195.992 91.7476C196.335 92.2611 196.776 92.702 197.289 93.0451C198.476 93.8382 200.128 93.8382 203.433 93.8382H222.707C226.011 93.8382 227.663 93.8382 228.85 93.0451C229.363 92.702 229.804 92.2611 230.147 91.7476C230.94 90.5608 230.94 88.9087 230.94 85.6045Z" fill="#F1F4FA"/>
<rect x="225.906" y="88.592" width="6.15414" height="6.15414" rx="3.07707" transform="rotate(180 225.906 88.592)" fill="#F53867" fill-opacity="0.36"/>
<rect width="10.6299" height="1.11894" rx="0.559468" transform="matrix(-1 0 0 1 216.953 83.5569)" fill="#B8C3D9"/>
<rect width="13.9867" height="0.559468" rx="0.279734" transform="matrix(-1 0 0 1 216.953 86.9133)" fill="#B8C3D9"/>
<path d="M181.159 85.6045C181.159 82.3003 181.159 80.6482 180.366 79.4615C180.023 78.948 179.582 78.5071 179.069 78.1639C177.882 77.3708 176.23 77.3708 172.926 77.3708H155.295C151.991 77.3708 150.339 77.3708 149.152 78.1639C148.639 78.5071 148.198 78.948 147.855 79.4615C147.062 80.6482 147.062 82.3003 147.062 85.6045C147.062 88.9087 147.062 90.5608 147.855 91.7476C148.198 92.2611 148.639 92.702 149.152 93.0451C150.339 93.8382 151.991 93.8382 155.295 93.8382H172.926C176.23 93.8382 177.882 93.8382 179.069 93.0451C179.582 92.702 180.023 92.2611 180.366 91.7476C181.159 90.5608 181.159 88.9087 181.159 85.6045Z" fill="#F1F4FA"/>
<rect x="176.125" y="88.592" width="6.15414" height="6.15414" rx="3.07707" transform="rotate(180 176.125 88.592)" fill="#F5C545" fill-opacity="0.61"/>
<rect width="10.6299" height="1.11894" rx="0.559468" transform="matrix(-1 0 0 1 167.175 83.5566)" fill="#B8C3D9"/>
<rect width="13.9867" height="0.559468" rx="0.279734" transform="matrix(-1 0 0 1 167.175 86.9133)" fill="#B8C3D9"/>
<rect width="85.5657" height="42.005" rx="4.70471" transform="matrix(-1 0 0 1 328.176 147.795)" fill="#F1F4FA"/>
<rect width="16.784" height="1.11894" rx="0.559468" transform="matrix(-1 0 0 1 320.503 154.364)" fill="#B8C3D9"/>
<rect width="4.80298" height="0.686139" rx="0.343069" transform="matrix(1 -8.74228e-08 -8.74228e-08 -1 272.718 154.586)" fill="#3066F0"/>
<rect width="4.80298" height="0.686139" rx="0.343069" transform="matrix(1 -8.74228e-08 -8.74228e-08 -1 262.425 154.586)" fill="#8B91FF"/>
<rect width="4.80298" height="0.686139" rx="0.343069" transform="matrix(1 -8.74228e-08 -8.74228e-08 -1 252.132 154.586)" fill="#30D7F4"/>
<rect width="1.37228" height="1.37228" rx="0.68614" transform="matrix(1 -8.74228e-08 -8.74228e-08 -1 278.894 154.928)" fill="#3066F0"/>
<rect width="1.37228" height="1.37228" rx="0.68614" transform="matrix(1 -8.74228e-08 -8.74228e-08 -1 268.601 154.928)" fill="#8B91FF"/>
<rect width="1.37228" height="1.37228" rx="0.68614" transform="matrix(1 -8.74228e-08 -8.74228e-08 -1 258.308 154.928)" fill="#30D7F4"/>
<path d="M286.45 181.86C285.584 181.86 284.882 182.562 284.882 183.428L284.882 183.58C284.882 184.446 285.584 185.148 286.45 185.148L319.955 185.148L319.955 181.86L286.45 181.86Z" fill="#30D7F4"/>
<path d="M298.506 181.86C297.64 181.86 296.938 182.562 296.938 183.428L296.938 183.58C296.938 184.446 297.64 185.148 298.506 185.148L319.954 185.148L319.954 181.86L298.506 181.86Z" fill="#8B91FF"/>
<path d="M310.016 181.86C309.15 181.86 308.448 182.562 308.448 183.428L308.448 183.58C308.448 184.446 309.15 185.148 310.016 185.148L319.956 185.148L319.956 181.86L310.016 181.86Z" fill="#3066F0"/>
<path d="M273.297 176.928C272.431 176.928 271.729 177.63 271.729 178.496L271.729 178.648C271.729 179.514 272.431 180.216 273.297 180.216L319.954 180.216L319.954 176.928L273.297 176.928Z" fill="#30D7F4"/>
<path d="M293.027 176.928C292.161 176.928 291.458 177.63 291.458 178.496L291.458 178.648C291.458 179.514 292.161 180.216 293.027 180.216L319.955 180.216L319.955 176.928L293.027 176.928Z" fill="#8B91FF"/>
<path d="M302.344 176.928C301.478 176.928 300.776 177.63 300.776 178.496L300.776 178.648C300.776 179.514 301.478 180.216 302.344 180.216L319.956 180.216L319.956 176.928L302.344 176.928Z" fill="#3066F0"/>
<path d="M260.694 171.996C259.828 171.996 259.126 172.698 259.126 173.565L259.126 173.716C259.126 174.582 259.828 175.284 260.694 175.284L319.955 175.284L319.955 171.996L260.694 171.996Z" fill="#30D7F4"/>
<path d="M268.366 171.996C267.499 171.996 266.797 172.698 266.797 173.565L266.797 173.716C266.797 174.582 267.499 175.284 268.366 175.284L319.954 175.284L319.954 171.996L268.366 171.996Z" fill="#8B91FF"/>
<path d="M287.548 171.996C286.682 171.996 285.98 172.698 285.98 173.565L285.98 173.716C285.98 174.582 286.682 175.284 287.548 175.284L319.957 175.284L319.957 171.996L287.548 171.996Z" fill="#3066F0"/>
<path d="M267.271 167.064C266.405 167.064 265.703 167.766 265.703 168.632L265.703 168.784C265.703 169.65 266.405 170.352 267.271 170.352L319.956 170.352L319.956 167.064L267.271 167.064Z" fill="#30D7F4"/>
<path d="M283.164 167.064C282.298 167.064 281.596 167.766 281.596 168.632L281.596 168.784C281.596 169.65 282.298 170.352 283.164 170.352L319.956 170.352L319.956 167.064L283.164 167.064Z" fill="#8B91FF"/>
<path d="M292.479 167.064C291.613 167.064 290.911 167.766 290.911 168.632L290.911 168.784C290.911 169.65 291.613 170.352 292.479 170.352L319.956 170.352L319.956 167.064L292.479 167.064Z" fill="#3066F0"/>
<path d="M255.213 162.132C254.347 162.132 253.645 162.834 253.645 163.7L253.645 163.851C253.645 164.718 254.347 165.42 255.213 165.42L319.954 165.42L319.954 162.132L255.213 162.132Z" fill="#30D7F4"/>
<path d="M279.874 162.132C279.008 162.132 278.306 162.834 278.306 163.7L278.306 163.851C278.306 164.718 279.008 165.42 279.874 165.42L319.955 165.42L319.955 162.132L279.874 162.132Z" fill="#8B91FF"/>
<path d="M286.45 162.132C285.583 162.132 284.881 162.834 284.881 163.7L284.881 163.851C284.881 164.718 285.583 165.42 286.45 165.42L319.954 165.42L319.954 162.132L286.45 162.132Z" fill="#3066F0"/>
<path d="M236.386 109.754C236.386 105.319 236.386 103.101 235.008 101.723C233.63 100.345 231.412 100.345 226.976 100.345H156.34C151.905 100.345 149.687 100.345 148.309 101.723C146.931 103.101 146.931 105.319 146.931 109.754V132.163C146.931 136.598 146.931 138.816 148.309 140.194C149.687 141.572 151.905 141.572 156.34 141.572H226.976C231.412 141.572 233.63 141.572 235.008 140.194C236.386 138.816 236.386 136.598 236.386 132.163V109.754Z" fill="#F1F4FA"/>
<rect width="13.4272" height="1.11894" rx="0.559468" transform="matrix(-1 0 0 1 228.347 105.875)" fill="#B8C3D9"/>
<rect width="4.80298" height="0.686139" rx="0.343069" transform="matrix(1 -8.74228e-08 -8.74228e-08 -1 168.596 107.43)" fill="#547AFF"/>
<rect width="4.80298" height="0.686139" rx="0.343069" transform="matrix(1 -8.74228e-08 -8.74228e-08 -1 158.303 107.43)" fill="#FFD600"/>
<rect width="1.37228" height="1.37228" rx="0.68614" transform="matrix(1 -8.74228e-08 -8.74228e-08 -1 174.771 107.774)" fill="#547AFF"/>
<rect width="1.37228" height="1.37228" rx="0.68614" transform="matrix(1 -8.74228e-08 -8.74228e-08 -1 164.478 107.774)" fill="#FFD600"/>
<path d="M219.069 126.551C219.069 125.793 218.455 125.179 217.697 125.179C216.939 125.179 216.325 125.793 216.325 126.551V134.099H219.069V126.551Z" fill="#30D7F4"/>
<path d="M210.152 129.639C210.152 128.881 209.538 128.267 208.78 128.267C208.022 128.267 207.408 128.881 207.408 129.639V134.099H210.152V129.639Z" fill="#30D7F4"/>
<path d="M201.23 118.66C201.23 117.902 200.616 117.288 199.858 117.288C199.1 117.288 198.485 117.902 198.485 118.66V134.098H201.23V118.66Z" fill="#30D7F4"/>
<path d="M192.31 123.464C192.31 122.706 191.695 122.092 190.937 122.092C190.179 122.092 189.565 122.706 189.565 123.464V134.099H192.31V123.464Z" fill="#30D7F4"/>
<path d="M183.391 126.894C183.391 126.136 182.777 125.522 182.019 125.522C181.261 125.522 180.647 126.136 180.647 126.894V134.099H183.391V126.894Z" fill="#30D7F4"/>
<path d="M174.471 129.295C174.471 128.537 173.857 127.923 173.099 127.923C172.341 127.923 171.727 128.537 171.727 129.295V134.098H174.471V129.295Z" fill="#30D7F4"/>
<path d="M215.638 124.836C215.638 124.078 215.024 123.464 214.266 123.464C213.508 123.464 212.894 124.078 212.894 124.836V134.099H215.638V124.836Z" fill="#3066F0"/>
<path d="M206.721 127.923C206.721 127.165 206.106 126.551 205.348 126.551C204.591 126.551 203.976 127.165 203.976 127.923V134.098H206.721V127.923Z" fill="#3066F0"/>
<path d="M197.8 124.149C197.8 123.391 197.186 122.777 196.428 122.777C195.67 122.777 195.056 123.391 195.056 124.149V134.098H197.8V124.149Z" fill="#3066F0"/>
<path d="M188.884 115.573C188.884 114.815 188.27 114.2 187.512 114.2C186.754 114.2 186.14 114.815 186.14 115.573V134.098H188.884V115.573Z" fill="#3066F0"/>
<path d="M179.963 119.347C179.963 118.589 179.349 117.974 178.591 117.974C177.833 117.974 177.218 118.589 177.218 119.347V134.099H179.963V119.347Z" fill="#3066F0"/>
<path d="M171.043 121.062C171.043 120.304 170.429 119.69 169.671 119.69C168.913 119.69 168.298 120.304 168.298 121.062V134.099H171.043V121.062Z" fill="#3066F0"/>
<path d="M236.386 157.205C236.386 152.769 236.386 150.551 235.008 149.173C233.63 147.795 231.412 147.795 226.976 147.795H203.085C198.65 147.795 196.432 147.795 195.054 149.173C193.676 150.551 193.676 152.769 193.676 157.205V179.487C193.676 183.922 193.676 186.14 195.054 187.518C196.432 188.896 198.65 188.896 203.085 188.896H226.976C231.412 188.896 233.63 188.896 235.008 187.518C236.386 186.14 236.386 183.922 236.386 179.487V157.205Z" fill="#F1F4FA"/>
<rect width="8.95148" height="1.11894" rx="0.559468" transform="matrix(-1 0 0 1 230.692 152.807)" fill="#B8C3D9"/>
<rect width="4.80298" height="0.686139" rx="0.343069" transform="matrix(1 -8.74228e-08 -8.74228e-08 -1 215.861 184.621)" fill="#547AFF"/>
<rect width="1.37228" height="1.37228" rx="0.68614" transform="matrix(1 -8.74228e-08 -8.74228e-08 -1 222.037 184.964)" fill="#547AFF"/>
<rect width="1.37228" height="1.37228" rx="0.68614" transform="matrix(1 -8.74228e-08 -8.74228e-08 -1 211.745 184.964)" fill="#547AFF"/>
<circle r="9.94903" transform="matrix(-1 0 0 1 215.548 168.748)" fill="#30D7F4"/>
<path d="M214.056 158.24L215.455 168.59C211.195 168.59 208.806 168.59 204.545 168.59" stroke="#F1F4FA" stroke-width="2.35235" stroke-linecap="round" stroke-linejoin="round"/>
<path d="M205.599 168.748C205.599 170.776 206.218 172.755 207.374 174.421C208.53 176.086 210.167 177.359 212.066 178.068C213.966 178.778 216.037 178.89 218.001 178.39C219.966 177.89 221.731 176.801 223.061 175.27C224.39 173.739 225.219 171.839 225.438 169.823C225.657 167.807 225.255 165.773 224.286 163.992C223.317 162.211 221.827 160.769 220.015 159.859C218.203 158.948 216.157 158.613 214.15 158.898L215.548 168.748H205.599Z" fill="#3066F0"/>
<path d="M187.379 157.204C187.379 152.769 187.379 150.551 186.001 149.173C184.623 147.795 182.406 147.795 177.97 147.795H156.642C152.207 147.795 149.989 147.795 148.611 149.173C147.233 150.551 147.233 152.769 147.233 157.204V179.486C147.233 183.922 147.233 186.14 148.611 187.518C149.989 188.896 152.207 188.896 156.642 188.896H177.97C182.406 188.896 184.623 188.896 186.001 187.518C187.379 186.14 187.379 183.922 187.379 179.486V168.345V157.204Z" fill="#F1F4FA"/>
<rect width="8.95148" height="1.11894" rx="0.559468" transform="matrix(-1 0 0 1 181.812 152.029)" fill="#B8C3D9"/>
<ellipse rx="8.16763" ry="8.55657" transform="matrix(-1 0 0 1 167.543 168.797)" stroke="#30D7F4" stroke-width="3.13647"/>
<path d="M167.543 160.241C165.878 160.241 164.254 160.774 162.886 161.768C161.519 162.762 160.474 164.17 159.891 165.804C159.309 167.437 159.217 169.218 159.628 170.908C160.038 172.598 160.932 174.116 162.189 175.259C163.445 176.402 165.006 177.116 166.66 177.304C168.315 177.492 169.985 177.147 171.447 176.313C172.909 175.479 174.093 174.198 174.841 172.64C175.588 171.082 175.863 169.322 175.629 167.595" stroke="#3066F0" stroke-width="4.70471"/>
<rect width="4.80298" height="0.686139" rx="0.343069" transform="matrix(1 -8.74228e-08 -8.74228e-08 -1 167.633 184.621)" fill="#547AFF"/>
<rect width="4.80298" height="0.686139" rx="0.343069" transform="matrix(1 -8.74228e-08 -8.74228e-08 -1 157.341 184.621)" fill="#547AFF"/>
<rect width="1.37228" height="1.37228" rx="0.68614" transform="matrix(1 -8.74228e-08 -8.74228e-08 -1 173.812 184.964)" fill="#547AFF"/>
<rect width="1.37228" height="1.37228" rx="0.68614" transform="matrix(1 -8.74228e-08 -8.74228e-08 -1 163.519 184.964)" fill="#547AFF"/>
<path d="M357.877 68.4363H124.148" stroke="#E7ECFF" stroke-width="0.784118"/>
<path d="M339.317 68.4363L339.317 199.049" stroke="#E7ECFF" stroke-width="0.784118"/>
<path d="M42.5899 79.939C42.5899 80.9299 43.3898 81.7313 44.3742 81.7313C45.3586 81.7313 46.1585 80.9299 46.1585 79.939C46.1585 78.948 45.3586 78.1467 44.3742 78.1467C43.3898 78.1467 42.5899 78.948 42.5899 79.939Z" stroke="#424242" stroke-width="0.589232"/>
<rect width="2.89336" height="2.89336" transform="matrix(-0.707107 -0.707107 -0.707107 0.707107 232.854 26.1667)" fill="#F53867"/>
<path d="M226.131 26.1667H222.916" stroke="#F53867" stroke-width="0.589232"/>
<path d="M238.406 26.1667H235.191" stroke="#F53867" stroke-width="0.589232"/>
<path d="M230.807 31.135L230.807 34.35" stroke="#F53867" stroke-width="0.589232"/>
<path d="M230.807 18.2754L230.807 21.4903" stroke="#F53867" stroke-width="0.589232"/>
<circle r="2.3358" transform="matrix(-0.993994 -0.109433 -0.109433 0.993994 140.974 42.2035)" stroke="#006DFB" stroke-width="0.589232"/>
<circle r="2.3358" transform="matrix(-0.993994 -0.109433 -0.109433 0.993994 49.3558 200.543)" stroke="#006DFB" stroke-width="0.589232"/>
<circle r="2.3358" transform="matrix(-0.993994 -0.109433 -0.109433 0.993994 373.022 116.017)" stroke="#006DFB" stroke-width="0.589232"/>
<rect width="2.89336" height="2.89336" transform="matrix(-0.707107 -0.707107 -0.707107 0.707107 93.1875 124.764)" fill="#F53867"/>
<path d="M86.4639 124.764H83.2489" stroke="#F53867" stroke-width="0.589232"/>
<path d="M98.7393 124.764H95.5243" stroke="#F53867" stroke-width="0.589232"/>
<path d="M91.1401 129.732L91.1401 132.947" stroke="#F53867" stroke-width="0.589232"/>
<path d="M91.1401 116.872L91.1401 120.087" stroke="#F53867" stroke-width="0.589232"/>
<rect width="2.89336" height="2.89336" transform="matrix(-0.707107 -0.707107 -0.707107 0.707107 367.47 261.816)" fill="#F53867"/>
<path d="M360.747 261.816H357.532" stroke="#F53867" stroke-width="0.589232"/>
<path d="M373.022 261.816H369.807" stroke="#F53867" stroke-width="0.589232"/>
<path d="M365.423 266.785L365.423 270" stroke="#F53867" stroke-width="0.589232"/>
<path d="M365.423 253.925L365.423 257.14" stroke="#F53867" stroke-width="0.589232"/>
<path opacity="0.5" d="M338.101 336.871C310.763 334.884 217.763 338.249 189.478 339.56C161.194 340.871 128.363 337.83 111.308 333.357C94.2536 328.884 -4.32572 333.738 0.147576 345.765C4.62087 357.792 44.0694 351.146 88.805 355.98C133.541 360.814 234.151 355.376 256.845 355.98C279.54 356.583 300.35 354.771 329.596 352.355C358.843 349.939 353.949 338.021 338.101 336.871Z" fill="#D1F2FA"/>
<path d="M213.105 243.897H64.3996C63.5058 243.897 62.7817 243.173 62.7817 242.278V239.851C62.7817 238.956 63.5058 238.231 64.3996 238.231H213.105C213.998 238.231 214.722 238.956 214.722 239.851V242.278C214.722 243.173 213.998 243.897 213.105 243.897Z" fill="#2370ED"/>
<path d="M237.316 344.977L237.316 344.977C237.154 345.046 236.794 345.142 236.254 345.251C235.725 345.357 235.057 345.468 234.303 345.576C232.796 345.791 230.96 345.988 229.243 346.09C227.516 346.192 225.941 346.196 224.939 346.039C224.691 346 224.489 345.952 224.335 345.899C224.184 345.846 224.104 345.797 224.068 345.765C224.08 345.74 224.107 345.691 224.172 345.619C224.877 344.835 225.443 344.494 225.994 344.162C226.242 344.013 226.487 343.865 226.74 343.68C227.564 343.077 228.192 342.215 228.738 340.05C229.274 337.927 229.919 334.853 230.18 332.096C230.311 330.719 230.347 329.403 230.218 328.317C230.093 327.256 229.8 326.306 229.171 325.789C228.704 325.404 227.592 324.202 226.159 322.573C224.738 320.959 223.028 318.959 221.38 317.008C219.732 315.058 218.146 313.159 216.972 311.747C216.385 311.042 215.901 310.458 215.563 310.05C215.425 309.883 215.311 309.746 215.225 309.642L221 300.789C221.076 300.906 221.164 301.042 221.263 301.195C221.647 301.787 222.197 302.635 222.863 303.655C224.196 305.695 225.992 308.426 227.847 311.186C229.702 313.945 231.618 316.737 233.188 318.9C233.973 319.981 234.675 320.909 235.242 321.599C235.525 321.943 235.779 322.233 235.995 322.455C236.2 322.664 236.405 322.849 236.59 322.942C237.052 323.173 237.665 323.362 238.27 323.548C238.327 323.566 238.384 323.584 238.441 323.601C239.121 323.811 239.795 324.029 240.352 324.318C240.912 324.609 241.292 324.941 241.46 325.344C241.622 325.731 241.625 326.278 241.218 327.094C240.749 328.032 240.368 329.612 240.03 331.411C239.727 333.023 239.452 334.856 239.184 336.642C239.15 336.865 239.117 337.087 239.083 337.308C238.782 339.307 238.488 341.199 238.167 342.635C238.006 343.354 237.843 343.942 237.675 344.365C237.591 344.577 237.511 344.734 237.438 344.841C237.361 344.954 237.316 344.977 237.316 344.977Z" fill="white" stroke="#424242" stroke-width="0.809483"/>
<path d="M131.313 339.995L131.313 339.995C131.749 339.646 132.383 338.896 133.14 337.9C133.907 336.891 134.827 335.591 135.841 334.106C137.868 331.137 140.275 327.416 142.582 323.776C144.89 320.135 147.1 316.574 148.732 313.922C149.549 312.596 150.221 311.498 150.689 310.731C150.923 310.348 151.106 310.047 151.231 309.842L151.274 309.771C151.332 309.783 151.398 309.797 151.472 309.813C151.77 309.88 152.191 309.981 152.68 310.12C153.662 310.398 154.899 310.823 155.962 311.413C157.041 312.011 157.859 312.734 158.13 313.569C158.387 314.359 158.197 315.395 156.904 316.745L156.903 316.745C154.145 319.628 152.505 323.334 151.872 326.833C151.241 330.32 151.598 333.672 152.921 335.823C153.499 336.763 153.505 337.431 153.241 337.951C152.957 338.511 152.309 339.009 151.333 339.469C150.369 339.923 149.155 340.307 147.833 340.678C147.303 340.827 146.751 340.974 146.194 341.124C145.38 341.342 144.555 341.563 143.768 341.795C142.415 342.193 141.146 342.71 139.884 343.244C139.687 343.327 139.49 343.411 139.293 343.494C138.224 343.949 137.15 344.406 136.006 344.815C133.311 345.778 130.241 346.47 126.086 346.162C125.042 346.085 124.317 345.96 123.842 345.807C123.342 345.646 123.234 345.49 123.217 345.441C123.207 345.416 123.188 345.301 123.413 345.032C123.626 344.779 123.978 344.486 124.449 344.159C125.3 343.568 126.448 342.926 127.614 342.275C127.732 342.209 127.85 342.143 127.968 342.077C129.235 341.367 130.499 340.646 131.313 339.995Z" fill="white" stroke="#424242" stroke-width="0.809483"/>
<path d="M237.261 244.724C237.261 244.724 195.454 243.63 178.879 257.243C173.275 261.845 145.729 315.357 143.906 320.14C145.157 321.392 152.194 323.652 155.321 323.338C164.546 312.328 176.742 302.811 181.591 294.174C187.567 283.532 189.41 278.211 199.105 277.272C208.801 276.332 230.694 273.204 237.261 273.204C243.828 273.204 237.261 244.724 237.261 244.724Z" fill="#383838"/>
<path d="M273.718 346.64H271.526L255.812 281.024H260.632L273.718 346.64Z" fill="#2370ED"/>
<path d="M208.07 346.64H210.262L228.295 278.704H223.474L208.07 346.64Z" fill="#2370ED"/>
<path d="M261.078 241.858L236.77 246.058C236.77 246.058 204.469 246.354 189.705 249.106C176.273 251.61 174.294 266.885 189.705 287.916C198.46 299.863 205.863 309.394 221.001 320.14C224.852 317.31 226.325 316.24 227.389 309.433C226.294 307.93 223.457 298.522 222.576 296.68C214.204 279.164 203.027 272.793 202.873 271.071C204.75 268.02 252.577 286.977 262.087 275.825C271.168 265.178 261.078 241.858 261.078 241.858Z" fill="#424242"/>
<path d="M232.618 220.697L232.618 220.697C232.252 206.119 238.176 197.294 243.42 191.933C249.291 187.692 255.549 186.479 261.716 187.279C262.105 188.164 262.552 189.013 263 189.84C263.109 190.04 263.217 190.238 263.325 190.435C263.713 191.145 264.092 191.839 264.439 192.543C269.878 203.614 269.234 212.86 267.738 221.916C267.501 223.349 267.242 224.78 266.983 226.215C265.605 233.829 264.209 241.539 266.033 250.155L266.557 250.044L266.033 250.155C266.767 253.625 267.01 256.216 266.867 258.091C266.723 259.974 266.197 261.046 265.49 261.607C264.788 262.165 263.776 262.323 262.409 262.067C261.044 261.812 259.417 261.159 257.591 260.223C254.396 258.584 250.707 256.136 246.927 253.627C246.388 253.269 245.847 252.91 245.305 252.552C241.047 249.736 236.743 246.977 233.051 245.425C232.262 244.242 231.875 243.303 231.711 242.304C231.538 241.25 231.606 240.094 231.778 238.446C231.819 238.062 231.864 237.655 231.912 237.22C232.28 233.922 232.825 229.027 232.618 220.697Z" fill="#FF4800" stroke="#424242" stroke-width="1.07193"/>
<mask id="path-149-inside-1_19629_167000" fill="white">
<path fill-rule="evenodd" clip-rule="evenodd" d="M251.499 168.635C251.98 166.611 252.005 164.441 251.396 162.291C249.38 155.184 243.353 150.668 237.932 152.207C232.51 153.746 229.751 160.756 231.765 167.865C233.779 174.975 237.647 179.805 243.068 178.266C245.036 177.707 246.937 176.387 248.465 174.591C249.663 178.849 250.56 184.953 247.09 187.847C245.893 188.845 244.506 190.056 243.065 191.525C249.166 187.107 255.685 185.888 262.086 186.789C258.144 177.449 257.176 166.957 257.176 166.957L251.499 168.635Z"/>
</mask>
<path fill-rule="evenodd" clip-rule="evenodd" d="M251.499 168.635C251.98 166.611 252.005 164.441 251.396 162.291C249.38 155.184 243.353 150.668 237.932 152.207C232.51 153.746 229.751 160.756 231.765 167.865C233.779 174.975 237.647 179.805 243.068 178.266C245.036 177.707 246.937 176.387 248.465 174.591C249.663 178.849 250.56 184.953 247.09 187.847C245.893 188.845 244.506 190.056 243.065 191.525C249.166 187.107 255.685 185.888 262.086 186.789C258.144 177.449 257.176 166.957 257.176 166.957L251.499 168.635Z" fill="white"/>
<path d="M251.396 162.291L252.427 161.999L252.427 161.999L251.396 162.291ZM251.499 168.635L250.456 168.387L250.027 170.188L251.802 169.663L251.499 168.635ZM237.932 152.207L238.224 153.239L237.932 152.207ZM231.765 167.865L232.796 167.573L231.765 167.865ZM243.068 178.266L242.776 177.234L243.068 178.266ZM248.465 174.591L249.496 174.301L248.951 172.365L247.648 173.897L248.465 174.591ZM247.09 187.847L246.403 187.024L246.403 187.024L247.09 187.847ZM243.065 191.525L242.3 190.774L243.694 192.393L243.065 191.525ZM262.086 186.789L261.937 187.85L263.809 188.113L263.073 186.372L262.086 186.789ZM257.176 166.957L258.243 166.858L258.123 165.559L256.872 165.929L257.176 166.957ZM250.365 162.583C250.919 164.541 250.899 166.524 250.456 168.387L252.541 168.883C253.061 166.699 253.091 164.342 252.427 161.999L250.365 162.583ZM238.224 153.239C240.545 152.58 243.067 153.194 245.298 154.865C247.53 156.537 249.415 159.236 250.365 162.584L252.427 161.999C251.361 158.24 249.224 155.127 246.584 153.149C243.942 151.17 240.74 150.296 237.639 151.176L238.224 153.239ZM232.796 167.573C231.847 164.224 232.035 160.936 233.057 158.34C234.079 155.745 235.904 153.897 238.224 153.239L237.639 151.176C234.538 152.056 232.272 154.483 231.062 157.555C229.853 160.626 229.668 164.397 230.733 168.158L232.796 167.573ZM242.776 177.234C240.496 177.882 238.564 177.224 236.898 175.552C235.183 173.831 233.779 171.042 232.796 167.573L230.733 168.158C231.765 171.798 233.301 174.979 235.379 177.065C237.507 179.201 240.219 180.189 243.361 179.297L242.776 177.234ZM247.648 173.897C246.228 175.565 244.499 176.745 242.776 177.234L243.361 179.297C245.572 178.669 247.645 177.208 249.281 175.286L247.648 173.897ZM247.433 174.882C248.019 176.965 248.512 179.438 248.457 181.704C248.4 183.984 247.797 185.862 246.403 187.024L247.776 188.67C249.853 186.939 250.537 184.317 250.6 181.757C250.663 179.183 250.109 176.475 249.496 174.301L247.433 174.882ZM246.403 187.024C245.192 188.034 243.775 189.271 242.3 190.774L243.831 192.275C245.237 190.842 246.595 189.656 247.776 188.67L246.403 187.024ZM243.694 192.393C249.553 188.151 255.787 186.985 261.937 187.85L262.235 185.727C255.582 184.791 248.78 186.063 242.437 190.657L243.694 192.393ZM263.073 186.372C261.142 181.796 259.932 176.918 259.205 173.166C258.842 171.295 258.601 169.712 258.451 168.599C258.376 168.043 258.324 167.604 258.29 167.307C258.274 167.158 258.262 167.044 258.254 166.969C258.25 166.931 258.247 166.902 258.245 166.884C258.245 166.875 258.244 166.868 258.244 166.864C258.243 166.862 258.243 166.86 258.243 166.859C258.243 166.859 258.243 166.858 258.243 166.858C258.243 166.858 258.243 166.858 258.243 166.858C258.243 166.858 258.243 166.858 257.176 166.957C256.108 167.055 256.108 167.056 256.108 167.056C256.108 167.056 256.108 167.056 256.108 167.056C256.108 167.057 256.108 167.058 256.109 167.059C256.109 167.06 256.109 167.063 256.109 167.065C256.11 167.071 256.111 167.08 256.112 167.091C256.114 167.113 256.117 167.144 256.121 167.186C256.129 167.268 256.142 167.389 256.16 167.545C256.195 167.858 256.249 168.312 256.326 168.886C256.481 170.032 256.728 171.656 257.1 173.574C257.842 177.404 259.087 182.441 261.098 187.205L263.073 186.372ZM256.872 165.929L251.195 167.607L251.802 169.663L257.48 167.985L256.872 165.929Z" fill="#424242" mask="url(#path-149-inside-1_19629_167000)"/>
<path d="M249.359 283.758C248.698 283.758 248.023 283.75 247.328 283.732C238.665 283.518 232.769 282.318 228.03 281.356C222.498 280.231 219.451 279.611 215.903 281.307C214.541 281.957 212.911 281.381 212.259 280.018C211.608 278.654 212.185 277.024 213.547 276.371C218.745 273.885 223.097 274.77 229.117 275.996C233.645 276.918 239.281 278.063 247.463 278.266C256.619 278.494 262.203 277.135 265.033 273.994C267.554 271.196 268.292 266.494 267.355 259.2C267.035 256.704 266.713 254.625 266.43 252.793C265.632 247.624 265.103 244.21 265.757 238.93C266.364 234.028 267.986 227.497 271.742 214.835C272.172 213.388 273.692 212.564 275.14 212.991C276.586 213.421 277.412 214.943 276.983 216.392C269.982 239.987 270.337 242.286 271.83 251.958C272.119 253.823 272.445 255.936 272.775 258.502C273.93 267.5 272.761 273.586 269.092 277.658C265.312 281.848 259.18 283.758 249.359 283.758Z" fill="#2370ED"/>
<path d="M152.223 332.796C141.017 338.281 134.987 341.423 131.394 341.124C130.545 341.054 129.842 340.966 129.253 340.874C125.256 343.238 118.878 346.031 126.054 346.564C134.499 347.189 138.564 343.747 143.88 342.181C149.196 340.615 155.766 339.677 153.264 335.609C152.785 334.83 152.438 333.873 152.223 332.796Z" fill="#FF4800"/>
<path d="M237.994 323.037C237.721 331.915 236.501 340.714 231.074 342.376C229.636 342.818 228.324 342.88 227.165 342.726C226.312 343.782 225.27 343.794 223.873 345.347C221.761 347.694 235.834 346.052 237.477 345.347C239.12 344.642 239.823 330.794 241.581 327.273C243.026 324.38 240.118 323.705 237.994 323.037Z" fill="#FF4800"/>
<path d="M194.828 239.007H159.229C158.165 239.007 157.199 238.389 156.75 237.425L142.363 206.439C141.727 205.07 142.322 203.443 143.69 202.806C145.06 202.169 146.684 202.765 147.32 204.134L160.972 233.538H194.828C196.337 233.538 197.56 234.763 197.56 236.272C197.56 237.782 196.339 239.007 194.828 239.007Z" fill="#424242"/>
<mask id="path-155-inside-2_19629_167000" fill="white">
<path fill-rule="evenodd" clip-rule="evenodd" d="M243.205 204.89C246.17 197.274 248.207 192.044 254.834 189.725C260.187 187.852 263.376 195.115 262.086 204.816C261.155 211.832 243.103 238.782 232.548 239.956C223.501 240.962 212.591 237.537 201.714 233.695C194.079 231.603 192.77 232.481 191.757 233.16C191.142 233.573 190.635 233.913 188.89 233.472C185.175 232.534 183.138 230.371 182.234 229.412C181.945 229.105 181.772 228.922 181.696 228.939C181.628 228.955 181.137 229.194 180.396 229.555C177.745 230.847 171.891 233.701 170.75 233.457C169.29 233.144 180.863 225.111 184.407 224.484C186.08 224.189 188.55 224.988 191.449 225.925C193.509 226.592 195.786 227.328 198.146 227.791C198.604 227.83 199.088 227.88 199.599 227.943C213.961 229.7 225.835 229.605 225.835 229.605C225.835 229.605 230.538 229.732 235.601 221.179C239.284 214.957 241.414 209.488 243.205 204.89Z"/>
</mask>
<path fill-rule="evenodd" clip-rule="evenodd" d="M243.205 204.89C246.17 197.274 248.207 192.044 254.834 189.725C260.187 187.852 263.376 195.115 262.086 204.816C261.155 211.832 243.103 238.782 232.548 239.956C223.501 240.962 212.591 237.537 201.714 233.695C194.079 231.603 192.77 232.481 191.757 233.16C191.142 233.573 190.635 233.913 188.89 233.472C185.175 232.534 183.138 230.371 182.234 229.412C181.945 229.105 181.772 228.922 181.696 228.939C181.628 228.955 181.137 229.194 180.396 229.555C177.745 230.847 171.891 233.701 170.75 233.457C169.29 233.144 180.863 225.111 184.407 224.484C186.08 224.189 188.55 224.988 191.449 225.925C193.509 226.592 195.786 227.328 198.146 227.791C198.604 227.83 199.088 227.88 199.599 227.943C213.961 229.7 225.835 229.605 225.835 229.605C225.835 229.605 230.538 229.732 235.601 221.179C239.284 214.957 241.414 209.488 243.205 204.89Z" fill="white"/>
<path d="M254.834 189.725L254.48 188.713L254.48 188.713L254.834 189.725ZM243.205 204.89L244.203 205.279V205.279L243.205 204.89ZM262.086 204.816L261.023 204.675L261.023 204.675L262.086 204.816ZM232.548 239.956L232.43 238.891L232.548 239.956ZM201.714 233.695L202.071 232.684L202.035 232.672L201.997 232.661L201.714 233.695ZM191.757 233.16L191.16 232.27L191.757 233.16ZM188.89 233.472L188.627 234.511L188.628 234.512L188.89 233.472ZM182.234 229.412L183.014 228.677L183.014 228.677L182.234 229.412ZM181.696 228.939L181.455 227.895L181.455 227.895L181.696 228.939ZM180.396 229.555L180.866 230.519L180.866 230.519L180.396 229.555ZM170.75 233.457L170.974 232.408H170.974L170.75 233.457ZM184.407 224.484L184.221 223.428L184.22 223.429L184.407 224.484ZM191.449 225.925L191.119 226.945H191.119L191.449 225.925ZM198.146 227.791L197.94 228.843L197.997 228.854L198.055 228.859L198.146 227.791ZM199.599 227.943L199.73 226.879L199.73 226.879L199.599 227.943ZM225.835 229.605L225.864 228.533L225.845 228.533L225.826 228.533L225.835 229.605ZM235.601 221.179L234.678 220.633L234.678 220.633L235.601 221.179ZM254.48 188.713C247.317 191.22 245.137 196.974 242.206 204.501L244.203 205.279C247.204 197.575 249.097 192.868 255.188 190.736L254.48 188.713ZM263.149 204.957C263.809 199.989 263.344 195.521 261.922 192.476C261.209 190.949 260.217 189.703 258.925 188.99C257.6 188.259 256.076 188.154 254.48 188.713L255.188 190.736C256.268 190.358 257.151 190.46 257.889 190.867C258.66 191.292 259.388 192.117 259.98 193.384C261.168 195.928 261.653 199.942 261.023 204.675L263.149 204.957ZM232.667 241.022C235.654 240.689 238.974 238.588 242.193 235.762C245.454 232.9 248.776 229.143 251.777 225.229C254.78 221.311 257.482 217.206 259.496 213.627C260.504 211.838 261.345 210.17 261.968 208.714C262.583 207.275 263.013 205.98 263.149 204.957L261.023 204.675C260.926 205.406 260.588 206.488 259.997 207.871C259.413 209.236 258.609 210.833 257.628 212.575C255.666 216.06 253.021 220.081 250.075 223.925C247.127 227.771 243.899 231.412 240.778 234.151C237.614 236.929 234.72 238.636 232.43 238.891L232.667 241.022ZM201.357 234.706C212.191 238.532 223.335 242.059 232.667 241.022L232.43 238.891C223.668 239.865 212.992 236.541 202.071 232.684L201.357 234.706ZM192.354 234.051C192.605 233.882 192.787 233.763 193.045 233.666C193.301 233.57 193.678 233.478 194.285 233.46C195.53 233.422 197.642 233.691 201.431 234.729L201.997 232.661C198.151 231.608 195.791 231.269 194.22 231.317C193.418 231.341 192.801 231.466 192.288 231.66C191.777 231.853 191.415 232.099 191.16 232.27L192.354 234.051ZM188.628 234.512C189.574 234.75 190.311 234.812 190.95 234.689C191.609 234.562 192.051 234.254 192.354 234.051L191.16 232.27C190.848 232.479 190.729 232.548 190.544 232.584C190.34 232.623 189.951 232.634 189.152 232.433L188.628 234.512ZM181.453 230.147C182.392 231.143 184.605 233.495 188.627 234.511L189.152 232.433C185.745 231.572 183.884 229.6 183.014 228.677L181.453 230.147ZM181.938 229.983C181.701 230.038 181.509 229.996 181.407 229.964C181.304 229.932 181.233 229.89 181.204 229.872C181.149 229.838 181.128 229.814 181.158 229.841C181.212 229.892 181.298 229.981 181.453 230.147L183.014 228.677C182.881 228.536 182.735 228.38 182.612 228.267C182.553 228.212 182.457 228.126 182.339 228.053C182.281 228.017 181.925 227.786 181.455 227.895L181.938 229.983ZM180.866 230.519C181.238 230.337 181.541 230.189 181.761 230.085C181.871 230.032 181.953 229.994 182.009 229.968C182.038 229.955 182.053 229.949 182.057 229.947C182.087 229.935 182.026 229.963 181.938 229.983L181.455 227.895C181.35 227.919 181.258 227.958 181.245 227.963C181.207 227.979 181.166 227.997 181.128 228.014C181.05 228.049 180.95 228.096 180.837 228.15C180.608 228.26 180.295 228.412 179.927 228.592L180.866 230.519ZM170.525 234.505C170.903 234.586 171.309 234.522 171.602 234.461C171.935 234.392 172.313 234.281 172.708 234.147C173.502 233.88 174.456 233.491 175.435 233.065C177.397 232.21 179.543 231.163 180.866 230.519L179.927 228.592C178.598 229.239 176.492 230.266 174.578 231.099C173.62 231.517 172.731 231.877 172.023 232.116C171.667 232.236 171.38 232.318 171.164 232.363C170.908 232.416 170.882 232.389 170.974 232.408L170.525 234.505ZM184.22 223.429C183.143 223.619 181.616 224.321 180.062 225.164C178.464 226.03 176.701 227.122 175.103 228.199C173.509 229.274 172.049 230.353 171.069 231.199C170.594 231.609 170.168 232.018 169.907 232.374C169.805 232.514 169.583 232.831 169.554 233.235C169.536 233.487 169.592 233.816 169.835 234.101C170.061 234.365 170.342 234.466 170.525 234.505L170.974 232.408C171.066 232.428 171.282 232.494 171.466 232.709C171.667 232.945 171.705 233.212 171.693 233.388C171.675 233.639 171.556 233.751 171.637 233.64C171.743 233.495 172.009 233.22 172.47 232.822C173.359 232.055 174.741 231.028 176.301 229.977C177.856 228.929 179.56 227.875 181.084 227.049C182.65 226.199 183.899 225.662 184.594 225.54L184.22 223.429ZM191.779 224.906C190.342 224.441 188.954 223.991 187.714 223.699C186.49 223.411 185.279 223.242 184.221 223.428L184.593 225.54C185.207 225.431 186.068 225.514 187.223 225.786C188.36 226.054 189.658 226.473 191.119 226.945L191.779 224.906ZM198.353 226.739C196.065 226.29 193.848 225.575 191.779 224.906L191.119 226.945C193.171 227.609 195.507 228.366 197.94 228.843L198.353 226.739ZM199.73 226.879C199.206 226.815 198.708 226.763 198.237 226.723L198.055 228.859C198.499 228.897 198.97 228.946 199.469 229.007L199.73 226.879ZM225.835 229.605C225.826 228.533 225.826 228.533 225.826 228.533C225.826 228.533 225.826 228.533 225.826 228.533C225.826 228.533 225.825 228.533 225.825 228.533C225.824 228.533 225.822 228.533 225.819 228.533C225.814 228.533 225.805 228.533 225.794 228.533C225.772 228.533 225.739 228.533 225.695 228.534C225.606 228.534 225.474 228.534 225.299 228.534C224.95 228.533 224.435 228.53 223.77 228.52C222.441 228.502 220.518 228.459 218.147 228.362C213.404 228.167 206.875 227.753 199.73 226.879L199.469 229.007C206.686 229.89 213.275 230.307 218.059 230.504C220.451 230.602 222.394 230.645 223.74 230.664C224.414 230.673 224.938 230.677 225.294 230.677C225.472 230.678 225.609 230.678 225.701 230.677C225.747 230.677 225.783 230.677 225.806 230.677C225.818 230.677 225.827 230.677 225.834 230.677C225.837 230.677 225.839 230.677 225.841 230.677C225.842 230.677 225.842 230.677 225.843 230.677C225.843 230.677 225.843 230.677 225.843 230.677C225.843 230.677 225.844 230.677 225.835 229.605ZM234.678 220.633C232.223 224.781 229.906 226.74 228.286 227.669C227.474 228.135 226.826 228.349 226.405 228.447C226.193 228.497 226.038 228.518 225.945 228.526C225.899 228.531 225.868 228.532 225.854 228.533C225.847 228.533 225.845 228.533 225.846 228.533C225.847 228.533 225.849 228.533 225.852 228.533C225.853 228.533 225.855 228.533 225.857 228.533C225.858 228.533 225.859 228.533 225.86 228.533C225.861 228.533 225.862 228.533 225.862 228.533C225.863 228.533 225.864 228.533 225.835 229.605C225.806 230.676 225.807 230.676 225.808 230.676C225.808 230.676 225.809 230.676 225.81 230.676C225.812 230.676 225.813 230.676 225.815 230.677C225.818 230.677 225.821 230.677 225.825 230.677C225.832 230.677 225.841 230.677 225.851 230.677C225.871 230.677 225.895 230.676 225.924 230.675C225.981 230.674 226.057 230.669 226.149 230.661C226.333 230.643 226.584 230.607 226.893 230.535C227.512 230.39 228.356 230.101 229.353 229.529C231.35 228.383 233.916 226.13 236.523 221.725L234.678 220.633ZM242.206 204.501C240.416 209.097 238.313 214.493 234.678 220.633L236.523 221.725C240.255 215.421 242.412 209.88 244.203 205.279L242.206 204.501Z" fill="#424242" mask="url(#path-155-inside-2_19629_167000)"/>
<path d="M239.366 196.535L242.728 190.742L242.782 190.649L242.796 190.542L243.557 184.717L260.578 178.983L261.486 186.295C261.232 186.316 260.901 186.344 260.508 186.383C259.555 186.476 258.235 186.629 256.769 186.863C253.858 187.328 250.289 188.13 247.884 189.484C245.502 190.825 242.592 193.405 240.304 195.615C239.978 195.93 239.665 196.238 239.366 196.535Z" fill="#FFEDE6" stroke="#424242" stroke-width="1.07193"/>
<path d="M203.602 228.869C203.621 228.646 203.639 228.449 203.654 228.286C203.8 228.295 203.976 228.306 204.178 228.318C204.841 228.358 205.791 228.414 206.935 228.476C209.222 228.6 212.29 228.748 215.406 228.848C218.52 228.947 221.691 228.997 224.183 228.922C225.428 228.884 226.517 228.816 227.349 228.704C227.764 228.648 228.131 228.58 228.427 228.494C228.698 228.415 229.003 228.298 229.203 228.089C229.625 227.65 230.416 226.54 231.411 225.017C232.418 223.475 233.662 221.467 234.997 219.193C237.667 214.647 240.711 209.025 242.964 203.939C245.213 198.863 247.104 194.858 249.27 192.274C250.345 190.991 251.467 190.086 252.707 189.571C253.94 189.059 255.329 188.918 256.969 189.226C260.091 189.812 264.028 194.292 262.999 203.453C262.749 205.681 261.54 208.97 259.807 212.714C258.083 216.441 255.869 220.56 253.658 224.427C251.447 228.292 249.242 231.898 247.538 234.595C246.686 235.944 245.961 237.065 245.422 237.876C245.153 238.282 244.932 238.609 244.766 238.848C244.683 238.968 244.615 239.064 244.562 239.136C244.536 239.172 244.514 239.2 244.498 239.222C244.489 239.233 244.483 239.241 244.478 239.247L244.472 239.254C244.47 239.256 244.47 239.257 244.47 239.257C244.445 239.285 244.354 239.358 244.132 239.452C243.921 239.542 243.639 239.633 243.283 239.722C242.572 239.9 241.623 240.06 240.491 240.202C238.231 240.487 235.302 240.694 232.23 240.85C229.207 241.004 224.4 240.592 220.133 240.005C218.004 239.712 216.024 239.377 214.482 239.051C213.711 238.888 213.057 238.729 212.552 238.58C212.025 238.424 211.722 238.297 211.603 238.217C210.833 237.696 210.034 237.106 209.425 236.644C209.121 236.413 208.866 236.215 208.686 236.075C208.597 236.005 208.526 235.949 208.478 235.911L208.424 235.868L208.41 235.857L208.406 235.854L208.406 235.854L208.405 235.854L208.253 235.732L208.058 235.737L208.058 235.737L208.057 235.737L208.056 235.737L208.048 235.737L208.014 235.738C207.985 235.738 207.941 235.739 207.885 235.739C207.772 235.74 207.61 235.741 207.412 235.74C207.017 235.736 206.484 235.723 205.932 235.685C205.375 235.647 204.815 235.584 204.358 235.484C204.13 235.434 203.941 235.378 203.798 235.318C203.663 235.262 203.601 235.216 203.58 235.195C203.576 235.188 203.567 235.17 203.555 235.136C203.533 235.075 203.51 234.987 203.488 234.869C203.445 234.633 203.415 234.319 203.398 233.944C203.365 233.196 203.387 232.264 203.432 231.344C203.477 230.426 203.545 229.533 203.602 228.869Z" fill="#FF4800" stroke="#424242" stroke-width="1.07193"/>
<path d="M236.68 146.131C223.604 146.758 225.655 166.444 225.655 166.444C225.655 166.444 229.051 167.492 236.166 166.319C235.62 164.205 235.854 158.807 235.854 158.807C235.854 158.807 236.682 163.19 237.732 165.85C239.236 166.539 240.938 165.928 243.83 165.229C245.316 171.485 249.514 174.127 252.388 175.031C255.564 176.031 258.926 177.223 262.679 175.344C266.432 173.465 264.369 154.27 262.375 150.409C259.383 144.614 254.412 139.428 245.811 142.167C241.496 143.542 236.68 146.131 236.68 146.131Z" fill="#424242"/>
<path d="M78.7207 346.64H82.2336L95.9007 242.089H88.1724L78.7207 346.64Z" fill="#2370ED"/>
<path d="M197.934 346.64H194.422L180.754 242.089H188.485L197.934 346.64Z" fill="#2370ED"/>
<path d="M253.238 195.132C253.179 195.246 253.147 195.636 253.493 196.289C253.925 197.105 253.238 198.113 253.238 198.161" stroke="white" stroke-width="0.535963"/>
<path d="M257.586 181.73C257.527 181.843 257.495 182.234 257.841 182.886C258.273 183.702 257.586 184.71 257.586 184.758" stroke="#FF4800" stroke-width="0.535963"/>
<path d="M218.298 232.925C218.239 233.038 218.207 233.429 218.553 234.081C218.985 234.897 218.298 235.905 218.298 235.953" stroke="white" stroke-width="0.535963"/>
<path d="M237.393 234.439C237.333 234.552 237.302 234.943 237.647 235.595C238.079 236.411 237.393 237.419 237.393 237.467" stroke="white" stroke-width="0.535963"/>
<path d="M241.757 243.897C241.698 244.011 241.666 244.401 242.012 245.054C242.444 245.87 241.757 246.877 241.757 246.925" stroke="white" stroke-width="0.535963"/>
<path d="M255.184 245.411C255.124 245.525 255.093 245.915 255.438 246.568C255.87 247.384 255.184 248.391 255.184 248.439" stroke="white" stroke-width="0.535963"/>
<path d="M239.428 222.261C239.369 222.375 239.337 222.765 239.682 223.418C240.114 224.234 239.428 225.241 239.428 225.289" stroke="white" stroke-width="0.535963"/>
<path d="M253.238 213.267C253.179 213.38 253.147 213.771 253.493 214.424C253.925 215.239 253.238 216.247 253.238 216.295" stroke="white" stroke-width="0.535963"/>
<path d="M258.735 227.261C258.676 227.375 258.644 227.765 258.99 228.418C259.422 229.234 258.735 230.242 258.735 230.29" stroke="white" stroke-width="0.535963"/>
<path d="M238.993 202.727C238.934 202.84 238.902 203.231 239.248 203.883C239.679 204.699 238.993 205.707 238.993 205.755" stroke="white" stroke-width="0.535963"/>
<path d="M265.447 208.784C265.388 208.897 265.356 209.288 265.702 209.94C266.134 210.756 265.447 211.764 265.447 211.812" stroke="white" stroke-width="0.535963"/>
<circle cx="245.688" cy="208.248" r="0.535963" fill="white"/>
<circle cx="249.287" cy="223.68" r="0.535963" fill="white"/>
<circle cx="257.448" cy="204.241" r="0.535963" fill="white"/>
<circle cx="246.223" cy="187.048" r="0.535963" fill="#FF4800"/>
<circle cx="235.952" cy="210.834" r="0.535963" fill="white"/>
<circle cx="228.199" cy="233.713" r="0.535963" fill="white"/>
<circle cx="209.646" cy="232.199" r="0.535963" fill="white"/>
<circle cx="254.172" cy="237.467" r="0.535963" fill="white"/>
<circle cx="260.335" cy="254.414" r="0.535963" fill="white"/>
<circle cx="264.235" cy="219.39" r="0.535963" fill="white"/>
<path d="M308.819 324.304C308.819 324.1 308.984 323.935 309.188 323.935H329.51C329.714 323.935 329.879 324.1 329.879 324.304V326.752C329.879 326.955 329.714 327.121 329.51 327.121H309.188C308.984 327.121 308.819 326.955 308.819 326.752V324.304Z" fill="white" stroke="#424242" stroke-width="0.737669"/>
<path d="M312.161 344.858L310.566 327.121H328.421L326.306 344.858H312.161Z" fill="white" stroke="#424242" stroke-width="0.737669" stroke-linejoin="round"/>
<path d="M319.35 323.566C318.964 309.189 321.855 275.055 336.51 253.536" stroke="#424242" stroke-width="0.737669" stroke-linejoin="round"/>
<path d="M327.697 318.001C321.204 320.598 318.962 315.682 318.653 312.9C318.501 311.606 318.918 308.227 321.766 304.935C321.854 304.834 321.952 304.742 322.056 304.658C322.682 304.158 323.011 303.375 322.931 302.578L322.833 301.591C322.685 300.12 323.325 298.681 324.515 297.804L325.183 297.311C326.35 296.451 327.142 295.176 327.394 293.748L327.593 292.619C327.661 292.232 327.82 291.866 328.056 291.551C328.278 291.255 328.56 291.009 328.888 290.839C329.336 290.606 329.888 290.344 330.479 290.189C331.639 289.886 332.566 290.189 333.795 291.334C333.958 291.562 334.114 291.825 334.26 292.129C334.373 292.366 334.422 292.629 334.422 292.893C334.422 293.239 334.332 293.58 334.162 293.882L333.604 294.874C332.79 296.321 332.574 298.029 333.002 299.634L333.069 299.887C333.197 300.367 333.262 300.861 333.262 301.357V301.923C333.262 303.155 332.747 304.331 331.842 305.167C330.836 306.095 330.318 307.437 330.438 308.8L330.663 311.349C330.845 313.41 330.457 315.571 329.008 317.047C328.559 317.503 328.101 317.867 327.697 318.001Z" fill="#FFD600" stroke="#424242" stroke-width="0.737669" stroke-linejoin="round"/>
<path d="M320.972 323.567C322.75 316.687 326.816 302.233 328.856 299.45" stroke="#424242" stroke-width="0.737669" stroke-linejoin="round"/>
<path d="M308.961 307.922C316.726 309.893 318.52 303.954 318.447 300.738C318.422 299.241 317.433 295.456 313.699 292.14C313.584 292.038 313.459 291.947 313.327 291.868C312.541 291.393 312.048 290.554 312.017 289.636L311.979 288.493C311.921 286.795 310.974 285.252 309.486 284.432L308.659 283.977C307.203 283.174 306.11 281.843 305.608 280.258L305.208 278.997C305.071 278.567 304.836 278.175 304.52 277.853C304.223 277.549 303.864 277.312 303.465 277.167C302.92 276.969 302.255 276.755 301.561 276.67C300.199 276.501 299.193 276.987 297.973 278.477C297.822 278.761 297.686 279.085 297.567 279.453C297.474 279.741 297.459 280.047 297.499 280.347C297.552 280.742 297.705 281.116 297.944 281.435L298.729 282.48C299.874 284.005 300.38 285.916 300.139 287.807L300.1 288.108C300.028 288.674 300.03 289.246 300.106 289.811L300.193 290.46C300.38 291.861 301.144 293.121 302.299 293.935C303.582 294.84 304.374 296.286 304.446 297.854L304.579 300.798C304.687 303.172 305.456 305.574 307.33 307.036C307.908 307.487 308.482 307.831 308.961 307.922Z" fill="#4BE477" stroke="#424242" stroke-width="0.737669" stroke-linejoin="round"/>
<path d="M304.044 284.609C307.909 291.334 315.592 308.586 315.407 323.798" stroke="#424242" stroke-width="0.737669" stroke-linejoin="round"/>
<path d="M327.59 285.08C316.537 287.054 314.61 278.597 315.027 274.121C315.208 272.037 316.962 266.861 322.509 262.61C322.68 262.48 322.864 262.366 323.055 262.268C324.201 261.685 324.973 260.561 325.106 259.282L325.272 257.698C325.518 255.338 326.991 253.282 329.148 252.289L330.358 251.732C332.472 250.76 334.131 249.011 334.991 246.848L335.67 245.138C335.904 244.551 336.272 244.027 336.746 243.608C337.19 243.216 337.714 242.921 338.285 242.759C339.066 242.538 340.019 242.306 340.998 242.255C342.92 242.155 344.28 242.933 345.839 245.131C346.022 245.542 346.181 246.007 346.312 246.532C346.414 246.943 346.404 247.371 346.319 247.785C346.206 248.33 345.955 248.837 345.59 249.256L344.39 250.635C342.64 252.646 341.745 255.262 341.897 257.923L341.921 258.344C341.966 259.139 341.907 259.938 341.746 260.718L341.563 261.607C341.162 263.545 339.971 265.227 338.275 266.247C336.393 267.38 335.143 269.321 334.889 271.502L334.415 275.584C334.031 278.883 332.72 282.155 329.961 284.005C329.107 284.577 328.27 285 327.59 285.08Z" stroke="#424242" stroke-width="0.737669" stroke-linejoin="round"/>
<circle cx="381.13" cy="194.379" r="3.64267" stroke="#FF4800" stroke-width="0.809483"/>
</svg>
